<svg xmlns="http://www.w3.org/2000/svg" width="55.357" height="55.348" viewBox="0 0 55.357 55.348">
  <g transform="translate(-715 -3063.762)">
    <path d="M4.531,17.389v5.335a.9.9,0,0,0,.9.9H17.26a.9.9,0,0,1,.9.9V36.353a.9.9,0,0,0,.9.9H24.4a.9.9,0,0,0,.9-.9V17.389a.9.9,0,0,0-.9-.9H5.43A.9.9,0,0,0,4.531,17.389Z" transform="translate(710.469 3081.854)" fill="#f57c00"/>
    <path d="M0,.9V5.957a.9.9,0,0,0,.9.9H23.779a.9.9,0,0,1,.9.9V30.673a.9.9,0,0,0,.9.9h5.091a.9.9,0,0,0,.9-.9V.9a.9.9,0,0,0-.9-.9H.9A.9.9,0,0,0,0,.9Z" transform="translate(770.357 3095.339) rotate(180)" fill="#003793"/>
  </g>
</svg>
