<?xml version="1.0" encoding="utf-8"?>
<!-- Generator: Adobe Illustrator 16.0.0, SVG Export Plug-In . SVG Version: 6.00 Build 0)  -->
<!DOCTYPE svg PUBLIC "-//W3C//DTD SVG 1.1//EN" "http://www.w3.org/Graphics/SVG/1.1/DTD/svg11.dtd">
<svg version="1.1" id="Layer_1" xmlns="http://www.w3.org/2000/svg" xmlns:xlink="http://www.w3.org/1999/xlink" x="0px" y="0px"
	 width="512px" height="512px" viewBox="-154.125 -236.254 512 512" enable-background="new -154.125 -236.254 512 512"
	 xml:space="preserve">
<g>
	<rect x="-144.006" y="-226.135" fill="#FFFFFF" width="491.763" height="491.763"/>
	<path d="M348.236,266.107h-492.723v-492.723h492.723V266.107z M-143.525,265.147h490.802v-490.802h-490.802V265.147z"/>
</g>
<g>
	<path id="Rectangle_23" fill="#003793" d="M-86.831,97.482h97.544c7.418,0,13.426,6.02,13.426,13.438v97.538
		c0,7.418-6.007,13.426-13.426,13.426h-97.544c-7.412,0-13.42-6.008-13.42-13.426v-97.538
		C-100.25,103.502-94.243,97.482-86.831,97.482z"/>
	<path id="Path_9" fill="#003793" d="M-100.25-32.501v68.32c0,6.392,5.178,11.568,11.575,11.568H62.757
		c6.39,0,11.575,5.191,11.575,11.582v151.374c0,6.402,5.184,11.58,11.575,11.58l0,0h68.334c6.397,0,11.575-5.178,11.575-11.58l0,0
		V-32.501c0-6.397-5.178-11.576-11.575-11.576H-88.748C-95.112-44.042-100.25-38.872-100.25-32.501z"/>
	<path id="Path_10" fill="#003793" d="M-100.25-170.87v64.756c0,6.391,5.178,11.576,11.575,11.576h292.919
		c6.389,0,11.573,5.184,11.573,11.574V210.37c0,6.376,5.186,11.567,11.575,11.567l0,0h65.218c6.398,0,11.575-5.191,11.575-11.567
		l0,0v-381.24c0-6.397-5.177-11.583-11.575-11.583l0,0H-88.748C-95.112-182.412-100.25-177.241-100.25-170.87z"/>
	<path fill="#727272" d="M334.265,275.746h-464.779c-13.019,0-23.611-10.592-23.611-23.61v-464.779
		c0-13.019,10.592-23.611,23.611-23.611h464.779c13.019,0,23.61,10.592,23.61,23.611v464.779
		C357.875,265.154,347.283,275.746,334.265,275.746z M-130.514-216.017c-1.86,0-3.374,1.514-3.374,3.374v464.779
		c0,1.859,1.514,3.373,3.374,3.373h464.779c1.859,0,3.373-1.514,3.373-3.373v-464.779c0-1.86-1.514-3.374-3.373-3.374H-130.514z"/>
</g>
</svg>
