<?xml version="1.0" encoding="utf-8"?>
<!-- Generator: Adobe Illustrator 16.0.0, SVG Export Plug-In . SVG Version: 6.00 Build 0)  -->
<!DOCTYPE svg PUBLIC "-//W3C//DTD SVG 1.1//EN" "http://www.w3.org/Graphics/SVG/1.1/DTD/svg11.dtd">
<svg version="1.1" id="Layer_1" xmlns="http://www.w3.org/2000/svg" xmlns:xlink="http://www.w3.org/1999/xlink" x="0px" y="0px"
	 width="282.183px" height="275.633px" viewBox="0 0 282.183 275.633" enable-background="new 0 0 282.183 275.633"
	 xml:space="preserve">
<g>
	<path fill-rule="evenodd" clip-rule="evenodd" d="M210.419,75.9c6.932,0,13.222-0.042,19.511,0.01
		c10.033,0.083,16.205,6.197,16.269,16.156c0.059,9.166,0.195,18.336-0.073,27.494c-0.108,3.683,1.086,6.162,3.733,8.627
		c7.802,7.267,15.303,14.855,23.02,22.216c6.242,5.957,9.384,13.043,9.304,21.772c-0.166,18.163-0.147,36.329-0.003,54.493
		c0.061,7.627-2.502,14.112-7.836,19.322c-3.291,3.215-4.439,6.781-4.264,11.184c0.186,4.658,0.368,9.36-0.092,13.979
		c-0.158,1.592-2.255,2.991-3.467,4.479c-1.201-1.506-3.246-2.911-3.439-4.537c-0.508-4.274-0.009-8.658-0.276-12.975
		c-0.437-7.039,1.632-12.641,6.573-18.048c3.065-3.354,4.786-8.79,5.256-13.478c0.826-8.25,0.373-16.646,0.107-24.97
		c-0.051-1.599-1.311-3.833-2.675-4.605c-9.696-5.495-19.534-10.747-29.395-15.946c-3.887-2.049-7.816-1.846-11.081,1.318
		c-2.81,2.723-4.133,6.118-2.494,9.965c0.624,1.465,1.777,2.783,2.932,3.922c1.049,1.035,2.326,1.981,3.679,2.546
		c8.413,3.51,11.902,9.383,10.688,18.715c-0.773,5.954,1.753,8.378,7.613,9.673c2.574,0.568,4.979,1.694,3.855,4.467
		c-0.605,1.496-3.508,3.137-5.172,2.947c-7.636-0.87-11.932-5.881-13.666-12.068c-17.518,0-34.569,0-52.162,0
		c0.309,8.109,3.773,13.146,9.637,16.738c1.837,1.126,3.898,1.879,5.765,2.965c4.224,2.457,7.491,5.879,7.828,10.912
		c0.411,6.139,0.421,12.329,0.097,18.471c-0.072,1.385-2.242,2.658-3.445,3.983c-1.219-1.32-3.35-2.553-3.486-3.978
		c-0.445-4.623-0.285-9.32-0.122-13.98c0.158-4.52-1.554-7.728-5.769-9.496c-10.959-4.598-17.15-12.799-18.293-23.939
		c-5.854-1.242-11.664-1.546-16.607-3.773c-5.501-2.48-7.342-8.229-7.502-14.65c-2.17,0-4.136,0-6.102,0
		c-46.995,0.002-93.989,0.006-140.984,0.004c-7.615-0.001-7.878-0.271-7.879-7.867C0,134.456,0,70.963,0.002,7.471
		c0-7.201,0.285-7.465,7.733-7.465C72.728,0.003,137.722,0.001,202.714,0c7.298,0,7.697,0.375,7.701,7.562
		c0.01,20.664,0.004,41.329,0.004,61.993C210.419,71.508,210.419,73.461,210.419,75.9z M7.6,7.866c0,63.48,0,126.675,0,189.95
		c49.277,0,98.186,0,147.562,0c0-2.257,0-4.215,0-6.174c0.001-32.825-0.021-65.65,0.013-98.475
		c0.011-11.155,6.166-17.218,17.364-17.264c4.999-0.021,9.997-0.006,14.996-0.007c5.093,0,10.185,0,15.146,0
		c0-23.194,0-45.597,0-68.074c-23.32,0-46.25,0-69.728,0c0,2.044,0,3.837,0,5.63c0,11.497-0.11,22.996,0.055,34.49
		c0.066,4.511-1.665,6.302-6.205,6.156c-7.158-0.229-14.332,0.09-21.492-0.098c-8.893-0.234-17.776-0.749-26.664-1.142
		c-0.338-8.762-0.764-17.521-0.985-26.285c-0.155-6.129-0.03-12.266-0.03-18.708C54.001,7.866,30.936,7.866,7.6,7.866z
		 M238.683,171.997c0.113-0.829,0.277-1.47,0.277-2.11c0.017-25.816,0.056-51.632-0.007-77.449
		c-0.015-5.984-3.207-9.206-9.394-9.245c-19.153-0.12-38.309-0.114-57.461-0.008c-6.275,0.035-9.23,3.044-9.238,9.217
		c-0.046,38.142-0.04,76.283,0.01,114.426c0.008,5.652,2.963,8.889,8.466,8.924c19.653,0.125,39.308,0.107,58.96,0.006
		c3.913-0.021,6.975-1.737,8.025-6.133c-3.679-2.509-7.328-4.818-10.778-7.393c-5.288-3.945-7.349-9.446-6.313-15.828
		c1.041-6.432,5.09-10.733,11.102-13.043C234.308,172.602,236.515,172.443,238.683,171.997z M124.831,46.525
		c0-13.092,0-25.903,0-38.707c-13.348,0-26.258,0-39.321,0c0,13.073,0,25.879,0,38.707C98.85,46.525,111.749,46.525,124.831,46.525z
		 M248.11,135.27c-0.626,0.392-1.251,0.783-1.877,1.175c0,11.933-0.079,23.867,0.119,35.798c0.021,1.238,1.434,2.892,2.643,3.598
		c5.02,2.932,10.21,5.571,15.336,8.323c3.264,1.753,6.523,3.515,10.424,5.617c0-7.618,0.537-14.146-0.203-20.524
		c-0.434-3.744-2.146-7.897-4.592-10.743C263.037,150.455,255.44,142.977,248.11,135.27z"/>
	<path fill-rule="evenodd" clip-rule="evenodd" d="M39.161,158.993c-3.486-0.005-6.973-0.06-10.456,0.013
		c-2.669,0.055-5.071-0.727-4.47-3.711c0.285-1.411,2.67-3.332,4.182-3.404c7.451-0.358,14.938-0.373,22.389-0.014
		c1.476,0.071,2.846,2.311,4.266,3.549c-1.486,1.191-2.862,3.189-4.48,3.41C46.842,159.348,42.977,158.998,39.161,158.993z"/>
	<path fill-rule="evenodd" clip-rule="evenodd" d="M39.184,182.25c-3.814,0-7.672,0.323-11.422-0.17
		c-1.379-0.182-2.504-2.293-3.744-3.523c1.298-1.194,2.555-3.365,3.901-3.423c7.782-0.331,15.594-0.335,23.376,0.005
		c1.307,0.058,2.517,2.334,3.771,3.584c-1.313,1.188-2.523,3.228-3.959,3.401c-3.924,0.475-7.942,0.163-11.924,0.163
		C39.184,182.275,39.184,182.262,39.184,182.25z"/>
	<path fill-rule="evenodd" clip-rule="evenodd" d="M216.372,149.336c0.053,8.648-6.719,15.486-15.418,15.57
		c-8.556,0.084-15.756-6.85-15.829-15.242c-0.073-8.414,6.935-15.463,15.515-15.609C209.161,133.91,216.321,140.865,216.372,149.336
		z M200.645,141.688c-4.509,0.064-8.03,3.523-7.999,7.856c0.029,4.349,3.577,7.76,8.086,7.776c4.689,0.017,8.461-3.682,8.285-8.124
		C208.847,144.918,205.171,141.621,200.645,141.688z"/>
	<path fill-rule="evenodd" clip-rule="evenodd" d="M197.091,108.639c-0.006-1.826-0.474-3.829,0.127-5.43
		c0.592-1.574,2.268-2.741,3.468-4.086c1.259,1.275,3.413,2.43,3.604,3.85c0.506,3.749,0.49,7.657-0.018,11.407
		c-0.186,1.367-2.348,2.466-3.607,3.687c-1.189-1.316-2.86-2.453-3.435-3.997C196.634,112.465,197.098,110.466,197.091,108.639z"/>
	<path fill-rule="evenodd" clip-rule="evenodd" d="M204.454,190.388c0.006,1.829,0.475,3.835-0.129,5.438
		c-0.584,1.553-2.27,2.692-3.472,4.014c-1.252-1.292-3.391-2.465-3.584-3.899c-0.506-3.757-0.499-7.675,0.021-11.429
		c0.187-1.348,2.296-3.043,3.786-3.357c0.856-0.181,2.795,1.908,3.23,3.294C204.88,186.263,204.448,188.393,204.454,190.388z"/>
</g>
</svg>
