<svg version="1.1" id="Layer_1" xmlns="http://www.w3.org/2000/svg" xmlns:xlink="http://www.w3.org/1999/xlink" x="0px" y="0px"
	 width="977.951px" height="977.951px" viewBox="0 0 977.951 977.951" enable-background="new 0 0 977.951 977.951"
	 xml:space="preserve">
<g>
	<circle fill-rule="evenodd" clip-rule="evenodd" fill="#FFFFFF" cx="488.976" cy="488.976" r="488.976"/>
	<g>
		<path fill-rule="evenodd" clip-rule="evenodd" fill="#263B80" d="M541.976,158.325c0.666,0,1.334,0,2,0
			c1.035,0.657,1.989,1.651,3.116,1.917c11.78,2.782,23.944,4.41,35.327,8.321c52.143,17.917,88.375,52.252,106.081,105.119
			c5.278,15.761,6.438,32.118,7.255,48.535c-3.232-1.298-6.508-2.502-9.691-3.911c-22.966-10.154-47.019-15.818-72.096-15.923
			c-61.967-0.26-123.936-0.064-185.903-0.064c-12.445,0-20.199,6.179-22.179,18.36c-4.771,29.356-9.33,58.747-13.985,88.122
			c-4.889,30.853-9.85,61.695-14.655,92.557c-1.556,9.99-2.719,20.042-4.062,30.068c-1.376,8.83-2.75,17.66-4.128,26.49
			c-3.775,24.201-7.53,48.406-11.332,72.604c-3.878,24.684-7.756,49.367-11.726,74.036c-1.602,9.957-3.448,19.874-5.183,29.81
			c-41.306-0.018-82.611-0.085-123.917-0.008c-7.999,0.015-13.696-3.288-17.399-10.288c-0.353-0.667-1.009-1.174-1.524-1.755
			c0-3.333,0-6.667,0-10c0-0.667,0-1.333,0-2c0-1,0-2,0-3c0.674-1.208,1.755-2.351,1.962-3.634
			c3.494-21.669,6.856-43.357,10.292-65.034c7.861-49.593,15.788-99.174,23.611-148.763c8.16-51.736,16.209-103.489,24.345-155.229
			c7.929-50.424,16.095-100.813,23.721-151.282c1.738-11.501,5.449-20.729,17.069-25.049c79.333,0,158.667,0,238,0
			C538.642,158.325,540.31,158.325,541.976,158.325z"/>
		<path fill-rule="evenodd" clip-rule="evenodd" fill="#386EB6" d="M340.815,734.366c1.735-9.936,3.581-19.853,5.183-29.81
			c3.97-24.669,7.848-49.353,11.726-74.036c3.801-24.197,7.557-48.402,11.332-72.604c1.377-8.83,2.752-17.66,4.126-26.488
			c4.931-9.315,12.543-13.321,23.188-13.22c31.156,0.298,62.318-0.033,93.476,0.159c18.425,0.113,36.619-1.638,54.304-6.709
			c71.375-20.47,118.926-66.106,142.842-136.347c5.718-16.794,7.866-34.294,9.422-51.875c11.858,8.455,24.646,15.879,35.395,25.566
			c27.422,24.712,43.934,55.73,49.35,92.449c0.104,0.699,1.191,1.252,1.82,1.873c0,1.667,0,3.333,0,5c0,1.333,0,2.667,0,4
			c0,9,0,18,0,27c-0.301,0.507-0.601,1.014-0.9,1.521c0.3,0.16,0.6,0.319,0.9,0.479c0,1.667,0,3.333,0,5
			c-0.218-0.224-0.426-0.461-0.668-0.654c-0.029-0.023-0.34,0.171-0.365,0.295c-0.729,3.705-1.389,7.421-2.156,11.117
			c-9.827,47.314-32.735,86.938-69.973,117.944c-37.801,31.476-81.475,47.043-130.621,47.271c-20.656,0.097-41.314,0-61.973,0.022
			c-11.85,0.014-20.353,7.158-22.143,18.672c-3.771,24.249-7.407,48.52-11.237,72.759c-5.538,35.049-11.292,70.064-16.737,105.127
			c-1.218,7.846-4.938,13.519-11.749,17.384c-0.641,0.363-0.927,1.354-1.378,2.053c-40,0-80,0-120,0c-0.333,0-0.667,0-1,0
			c-0.667,0-1.333,0-2,0c0.199-0.199,0.583-0.43,0.555-0.59c-0.051-0.293-0.286-0.637-0.545-0.799
			c-6.487-4.066-10.975-9.501-9.838-17.561c2.147-15.232,4.756-30.4,7.156-45.599C332.48,787.302,336.645,760.833,340.815,734.366z"
			/>
		<path fill-rule="evenodd" clip-rule="evenodd" fill="#010102" d="M541.976,158.325c-1.666,0-3.334,0-5,0
			C538.642,158.325,540.31,158.325,541.976,158.325z"/>
		<path fill-rule="evenodd" clip-rule="evenodd" fill="#010102" d="M782.976,452.325c0-1.333,0-2.667,0-4
			C782.976,449.659,782.976,450.992,782.976,452.325z"/>
		<path fill-rule="evenodd" clip-rule="evenodd" fill="#010102" d="M782.976,481.325c-0.301-0.16-0.601-0.319-0.9-0.479
			c0.3-0.507,0.6-1.014,0.9-1.521C782.976,479.992,782.976,480.659,782.976,481.325z"/>
		<path fill-rule="evenodd" clip-rule="evenodd" fill="#010102" d="M197.976,710.315c0,0.667,0,1.333,0,2
			C197.976,711.648,197.976,710.982,197.976,710.315z"/>
		<path fill-rule="evenodd" clip-rule="evenodd" fill="#010102" d="M332.976,878.315c0.333,0,0.667,0,1,0
			C333.642,878.315,333.309,878.315,332.976,878.315z"/>
		<path fill-rule="evenodd" clip-rule="evenodd" fill="#222960" d="M695.755,322.218c0.216,0.407,0.432,0.813,0.652,1.22
			c-1.552,17.58-3.7,35.081-9.418,51.875c-23.916,70.241-71.467,115.877-142.842,136.347c-17.685,5.071-35.879,6.822-54.304,6.709
			c-31.158-0.192-62.319,0.139-93.476-0.159c-10.644-0.102-18.257,3.904-23.188,13.22c1.345-10.028,2.508-20.08,4.064-30.07
			c4.806-30.862,9.766-61.704,14.655-92.557c4.655-29.375,9.214-58.766,13.985-88.122c1.98-12.181,9.734-18.361,22.179-18.36
			c61.968,0,123.937-0.195,185.903,0.064c25.077,0.105,49.13,5.769,72.096,15.923C689.247,319.715,692.522,320.919,695.755,322.218z
			"/>
	</g>
</g>
</svg>
