<svg id="avatar" xmlns="http://www.w3.org/2000/svg" width="20.966" height="24.779" viewBox="0 0 20.966 24.779">
  <g id="Group_220" data-name="Group 220" transform="translate(0)">
    <path id="Path_1" data-name="Path 1" d="M53.6,11.489a6.353,6.353,0,1,0-7.471,0,10.5,10.5,0,0,0-6.748,9.795,3.5,3.5,0,0,0,3.494,3.494H56.857a3.5,3.5,0,0,0,3.494-3.494A10.5,10.5,0,0,0,53.6,11.489ZM45.421,6.353A4.447,4.447,0,1,1,49.868,10.8,4.452,4.452,0,0,1,45.421,6.353ZM56.857,22.873H42.879a1.59,1.59,0,0,1-1.588-1.588,8.577,8.577,0,1,1,17.154,0A1.59,1.59,0,0,1,56.857,22.873Z" transform="translate(-39.385)"/>
  </g>
</svg>
