<svg version="1.1" id="Layer_1" xmlns="http://www.w3.org/2000/svg"
	xmlns:xlink="http://www.w3.org/1999/xlink" x="0px" y="0px"
	width="209.822px" height="198.376px" viewBox="0 0 209.822 198.376"
	enable-background="new 0 0 209.822 198.376"
	xml:space="preserve">
<g>
	<path fill="#FFFFFF" d="M105.138,0.083c26.816,0,53.635,0.16,80.449-0.082c10.278-0.093,17.961,3.852,22.132,13.085
		c4.281,9.481,1.769,18.014-5.197,25.639c-22.563,24.7-45.023,49.495-67.368,74.393c-1.56,1.739-2.554,4.608-2.603,6.978
		c-0.256,12.32,0.177,24.661-0.323,36.967c-0.131,3.21-1.94,7.264-4.353,9.316c-11.911,10.139-24.213,19.826-36.523,29.486
		c-6.394,5.018-12.866,2.236-14.107-5.862c-0.301-1.96-0.237-3.986-0.239-5.981c-0.015-21.486,0.077-42.975-0.128-64.459
		c-0.022-2.373-1.119-5.259-2.704-7.018C52.111,88.068,29.881,63.741,7.679,39.388C-5.287,25.167-1.344,6.277,15.827,0.986
		c2.63-0.811,5.566-0.86,8.361-0.867C51.171,0.059,78.154,0.083,105.138,0.083z M93.951,172.909
		c7.164-5.748,12.892-10.556,18.864-15.039c2.574-1.934,3.359-4.082,3.313-7.189c-0.166-11.157,0.194-22.327-0.174-33.475
		c-0.187-5.639,1.79-9.697,5.519-13.76c23.077-25.129,46.004-50.398,68.762-75.815c1.689-1.886,2.819-5.681,2.084-7.878
		c-0.571-1.709-4.449-3.258-6.864-3.266C131.655,16.303,77.855,16.3,24.056,16.482c-2.4,0.008-6.237,1.584-6.824,3.309
		c-0.736,2.161,0.42,5.927,2.099,7.803C42.304,53.272,65.446,78.8,88.72,104.206c3.763,4.107,5.364,8.447,5.299,13.94
		c-0.19,16.154-0.068,32.312-0.069,48.469C93.951,168.208,93.951,169.801,93.951,172.909z"/>
</g>
</svg>