<svg id="cart" xmlns="http://www.w3.org/2000/svg" width="28.083" height="24.193" viewBox="0 0 28.083 24.193">
  <g id="Export-_x28_Final---R1_x29__10_" transform="translate(0 0)">
    <g id="cart_1_" transform="translate(0 0)">
      <path id="body_7_" d="M13.675,56.375a3.089,3.089,0,1,1-4.647-2.669Q9,53.639,5.067,37.558a.421.421,0,0,0-.371-.32l-3.713,0a.983.983,0,0,1-.054-1.965H4.657a2.387,2.387,0,0,1,2.3,1.748l.486,1.986H27.1a.983.983,0,0,1,.983.983,2.947,2.947,0,0,1-.039.307l-2.451,9.83a.983.983,0,0,1-1.018.743l-14.233,0,.511,2.091a.421.421,0,0,0,.371.32l11.439,0a3.09,3.09,0,0,1,.317,6.163,3.128,3.128,0,0,1-.317.016,3.091,3.091,0,0,1-2.879-4.214h-6.32A3.082,3.082,0,0,1,13.675,56.375Zm8.987-1.123a1.123,1.123,0,1,0,1.123,1.123A1.123,1.123,0,0,0,22.662,55.251Zm-12.077,0a1.123,1.123,0,1,0,1.123,1.123,1.123,1.123,0,0,0-1.123-1.123Zm15.263-14.28H7.924l1.938,7.936H23.871Z" transform="translate(0 -35.271)"/>
    </g>
  </g>
</svg>
