<svg xmlns="http://www.w3.org/2000/svg" width="15.099" height="19" viewBox="0 0 15.099 19">
  <g id="surface1" transform="translate(-0.5)">
    <path id="Path_335" data-name="Path 335" d="M10.77.147A.462.462,0,0,0,10.439,0H3A2.511,2.511,0,0,0,.5,2.492V16.508A2.511,2.511,0,0,0,3,19h10.09a2.511,2.511,0,0,0,2.5-2.492V5.379a.493.493,0,0,0-.133-.321ZM10.9,1.62l3.144,3.291H12a1.1,1.1,0,0,1-1.1-1.092Zm2.191,16.462H3a1.592,1.592,0,0,1-1.584-1.574V2.492A1.592,1.592,0,0,1,3,.918H9.983v2.9A2.011,2.011,0,0,0,12,5.828h2.674V16.508A1.589,1.589,0,0,1,13.095,18.082Zm0,0" transform="translate(0 0)" fill="#00aaf1"/>
    <path id="Path_336" data-name="Path 336" d="M97.228,401.934H89.633a.459.459,0,1,0,0,.918h7.6a.459.459,0,1,0,0-.918Zm0,0" transform="translate(-85.381 -387.018)" fill="#00aaf1"/>
    <path id="Path_337" data-name="Path 337" d="M121.436,177.245a.456.456,0,0,0,.67,0l2.689-2.887a.458.458,0,1,0-.67-.624l-1.9,2.033v-5.012a.459.459,0,0,0-.918,0v5.012l-1.891-2.033a.458.458,0,0,0-.67.624Zm0,0" transform="translate(-113.721 -163.977)" fill="#00aaf1"/>
  </g>
</svg>
