<svg xmlns="http://www.w3.org/2000/svg" xmlns:xlink="http://www.w3.org/1999/xlink" width="29" height="28" viewBox="0 0 29 28">
  <defs>
    <clipPath id="clip-path">
      <ellipse id="Ellipse_7" data-name="Ellipse 7" cx="14.5" cy="14" rx="14.5" ry="14" transform="translate(0 0.277)" fill="#fff" stroke="#707070" stroke-width="1"/>
    </clipPath>
  </defs>
  <g id="Mask_Group_2" data-name="Mask Group 2" transform="translate(0 -0.277)" clip-path="url(#clip-path)">
    <path id="email_5_" data-name="email (5)" d="M14.376,0A14.376,14.376,0,1,1,0,14.376,14.376,14.376,0,0,1,14.376,0ZM23.5,19.949V9.265l-5.343,5.342Zm-17.11.218H22.361L17.48,15.287l-1.86,1.86a.481.481,0,0,1-.34.14H13.472a.48.48,0,0,1-.34-.14l-1.86-1.86L6.392,20.167ZM5.251,9.264V19.95l5.343-5.343Zm17.572-.679H5.93l7.741,7.741h1.411Z" fill-rule="evenodd"/>
  </g>
</svg>
