<!DOCTYPE svg PUBLIC "-//W3C//DTD SVG 1.1//EN" "http://www.w3.org/Graphics/SVG/1.1/DTD/svg11.dtd">
<svg version="1.1" id="Layer_1" xmlns="http://www.w3.org/2000/svg" xmlns:xlink="http://www.w3.org/1999/xlink" x="0px" y="0px"
	 width="197.973px" height="182.465px" viewBox="0 0 197.973 182.465" enable-background="new 0 0 197.973 182.465"
	 xml:space="preserve">
<g>
	<path fill-rule="evenodd" clip-rule="evenodd" fill="#FFFFFF" d="M197.973,7.385c-2.506,3.327-4.893,6.752-7.536,9.966
		c-21.358,25.972-42.772,51.898-64.118,77.881c-0.66,0.802-1.074,2.059-1.08,3.105c-0.105,18.815-0.191,37.632-0.123,56.447
		c0.016,3.99-1.522,6.41-5.119,8.147c-12.449,6.012-24.784,12.259-37.194,18.353c-1.289,0.633-2.777,1.114-4.194,1.176
		c-2.568,0.111-4.894-1.822-5.486-4.322c-0.265-1.112-0.33-2.294-0.331-3.445c-0.018-25.324-0.024-50.647,0.015-75.972
		c0.002-1.505-0.372-2.665-1.341-3.838C48.279,66.827,25.123,38.747,1.989,10.648C1.187,9.675,0.657,8.478,0,7.385
		C0,6.482,0,5.58,0,4.678C1.358,1.262,3.849-0.004,7.53,0C68.5,0.064,129.472,0.064,190.443,0c3.68-0.004,6.171,1.262,7.529,4.678
		C197.973,5.58,197.973,6.482,197.973,7.385z M18.928,12.125c0.527,0.696,0.823,1.118,1.149,1.513
		C40.812,38.79,61.532,63.954,82.315,89.066c1.835,2.218,2.656,4.555,2.65,7.398c-0.044,22.619-0.024,45.237-0.024,67.856
		c0,0.728,0,1.454,0,2.412c0.994-0.475,1.627-0.77,2.252-1.078c7.955-3.933,15.896-7.895,23.875-11.775
		c1.366-0.664,1.938-1.41,1.934-3.026c-0.046-18.236,0.018-36.474,0.01-54.71c-0.001-2.558,0.705-4.724,2.361-6.727
		c20.811-25.173,41.582-50.379,62.358-75.581c0.414-0.502,0.778-1.044,1.272-1.711C125.524,12.125,72.387,12.125,18.928,12.125z"/>
</g>
</svg>
