<svg xmlns="http://www.w3.org/2000/svg" xmlns:xlink="http://www.w3.org/1999/xlink" width="29" height="29" viewBox="0 0 29 29">
  <defs>
    <clipPath id="clip-path">
      <circle id="Ellipse_6" data-name="Ellipse 6" cx="14.5" cy="14.5" r="14.5" fill="#fff" stroke="#707070" stroke-width="1"/>
    </clipPath>
  </defs>
  <g id="Mask_Group_1" data-name="Mask Group 1" clip-path="url(#clip-path)">
    <g id="phone-call_2_" data-name="phone-call (2)" transform="translate(0 0)">
      <g id="Group_246" data-name="Group 246">
        <path id="Path_26" data-name="Path 26" d="M24.54,4.209a14.376,14.376,0,1,0,4.212,10.164A14.376,14.376,0,0,0,24.54,4.209ZM21.772,20.026l0,0v0l-.728.724a3.834,3.834,0,0,1-3.618,1.035,12.738,12.738,0,0,1-3.7-1.658,17.093,17.093,0,0,1-2.918-2.353,17.224,17.224,0,0,1-2.18-2.645,13.416,13.416,0,0,1-1.639-3.316,3.834,3.834,0,0,1,.958-3.915L8.8,7.041a.609.609,0,0,1,.861,0l0,0,2.693,2.693a.609.609,0,0,1,0,.861l0,0-1.581,1.581a1.289,1.289,0,0,0-.134,1.677,18.494,18.494,0,0,0,1.893,2.209,18.381,18.381,0,0,0,2.492,2.094,1.3,1.3,0,0,0,1.658-.144l1.529-1.553a.609.609,0,0,1,.861,0l0,0,2.7,2.7A.608.608,0,0,1,21.772,20.026Z" transform="translate(0 0)"/>
      </g>
    </g>
  </g>
</svg>
