<svg xmlns="http://www.w3.org/2000/svg" xmlns:xlink="http://www.w3.org/1999/xlink" width="234" height="119" viewBox="0 0 234 119">
  <defs>
    <clipPath id="clip-path">
      <rect id="Rectangle_1021" data-name="Rectangle 1021" width="152.642" height="87.41" fill="#fff"/>
    </clipPath>
  </defs>
  <g id="Group_1837" data-name="Group 1837" transform="translate(-1092 -2403)">
    <rect id="Rectangle_44" data-name="Rectangle 44" width="234" height="119" transform="translate(1092 2403)" fill="#00aaf1"/>
    <g id="Group_1744" data-name="Group 1744" transform="translate(1133 2419.001)">
      <g id="Group_1731" data-name="Group 1731" transform="translate(0 -0.001)">
        <g id="Group_1730" data-name="Group 1730" clip-path="url(#clip-path)">
          <path id="Path_338" data-name="Path 338" d="M168.367,14.942a15.382,15.382,0,0,1-30.754,0,15.384,15.384,0,0,1,30.754,0M139.5,14.9a13.472,13.472,0,0,0,26.943,0,13.474,13.474,0,0,0-26.943,0" transform="translate(-81.117 0.001)" fill="#fff"/>
          <path id="Path_339" data-name="Path 339" d="M222.755,17.489h-.076V30.356h-1.887V2.206h5.434c6.566,0,8.792,3.811,8.792,7.32,0,4.642-3.585,7.962-9.358,7.962h-.377l12.641,12.868h-2.453ZM222.68,3.9V15.828h3.208c4.566,0,7.245-2.792,7.245-6.3-.038-2.377-1.623-5.622-6.906-5.622Z" transform="translate(-130.148 -1.3)" fill="#fff"/>
          <path id="Path_340" data-name="Path 340" d="M262.711,3.866h-5.245V2.206h12.377v1.66H264.6v26.49h-1.887Z" transform="translate(-151.766 -1.3)" fill="#fff"/>
          <path id="Path_341" data-name="Path 341" d="M318.644,14.942a15.381,15.381,0,0,1-30.754,0,15.383,15.383,0,0,1,30.754,0M289.777,14.9a13.472,13.472,0,0,0,26.943,0,13.474,13.474,0,0,0-26.943,0" transform="translate(-169.699 0.001)" fill="#fff"/>
          <path id="Path_342" data-name="Path 342" d="M154.142,117.753v6.415h-1.849v-6.415H137.652l-.038-.264,14.905-21.471h1.623v20.188h3.736l-.566,1.547Zm-1.849-1.547V99.111l-11.849,17.094Z" transform="translate(-81.118 -56.598)" fill="#fff"/>
          <path id="Path_343" data-name="Path 343" d="M201.442,114.96v9.207h-1.887V114.96L189.82,96.017h2.113l8.6,16.906,8.641-16.906h2Z" transform="translate(-111.891 -56.598)" fill="#fff"/>
          <path id="Path_344" data-name="Path 344" d="M272.136,108.754a15.383,15.383,0,1,1-15.358-14.943,15.181,15.181,0,0,1,15.358,14.943m-28.867-.038a13.474,13.474,0,1,0,13.509-13.207,13.53,13.53,0,0,0-13.509,13.207" transform="translate(-142.285 -55.298)" fill="#fff"/>
          <path id="Path_345" data-name="Path 345" d="M334.223,125.074c-6,0-9.66-4.113-9.66-10.981V96.018h1.886v18.83c0,5.66,3.736,8.49,7.774,8.49,4.113,0,7.849-2.83,7.849-8.49V96.018h1.887v18.075c0,6.868-3.623,10.981-9.736,10.981" transform="translate(-191.317 -56.599)" fill="#fff"/>
          <path id="Path_346" data-name="Path 346" d="M140.051,196.077a.842.842,0,0,0-.8-.519.742.742,0,0,0-.779.733c0,.452.361.6.812.779a2.52,2.52,0,0,1,1.185.677,1.108,1.108,0,0,1,.237.744,1.406,1.406,0,0,1-1.5,1.467,1.575,1.575,0,0,1-1.591-1.219l.44-.135a1.175,1.175,0,0,0,1.151.925.987.987,0,0,0,1.027-1.016c0-.519-.327-.711-1.027-.993a2.286,2.286,0,0,1-1-.61.97.97,0,0,1-.2-.6,1.168,1.168,0,0,1,1.23-1.185,1.241,1.241,0,0,1,1.208.745Z" transform="translate(-81.118 -115.021)" fill="#fff"/>
          <path id="Path_347" data-name="Path 347" d="M153.9,186.553v5.6l1.9-1.975h.586l-1.941,2,2.573,2.607H156.4l-2.269-2.28-.237.237v2.042h-.452v-8.227Z" transform="translate(-90.45 -109.965)" fill="#fff"/>
          <rect id="Rectangle_1020" data-name="Rectangle 1020" width="0.451" height="8.227" transform="translate(69.496 76.588)" fill="#fff"/>
          <path id="Path_348" data-name="Path 348" d="M179.593,197.589a1.849,1.849,0,0,0,1.829,1.941,1.757,1.757,0,0,0,1.6-1.05l.383.226a2.781,2.781,0,1,1,.124-1.117Zm3.465-.429a1.729,1.729,0,0,0-1.7-1.6,1.76,1.76,0,0,0-1.727,1.6Z" transform="translate(-105.584 -115.021)" fill="#fff"/>
          <path id="Path_349" data-name="Path 349" d="M199.06,202.43h-.452v-7.2h.452v.8a2.164,2.164,0,0,1,1.806-.9,2.2,2.2,0,0,1,2.235,2.37,2.274,2.274,0,0,1-2.257,2.46,2,2,0,0,1-1.783-.948Zm3.566-4.932a1.8,1.8,0,1,0-3.589-.022,1.809,1.809,0,1,0,3.589.022" transform="translate(-117.071 -115.021)" fill="#fff"/>
          <path id="Path_350" data-name="Path 350" d="M230.19,195.23h.452v.576a1.312,1.312,0,0,1,1.2-.677,1.27,1.27,0,0,1,1.286.835,1.429,1.429,0,0,1,1.366-.835,1.41,1.41,0,0,1,1.038.383,1.681,1.681,0,0,1,.395,1.253v3.07h-.452v-3.07a1.335,1.335,0,0,0-.271-.948.917.917,0,0,0-.689-.26c-1.218,0-1.23,1.219-1.23,1.5v2.776h-.452v-2.956c0-.294-.023-1.321-1.015-1.321-.8,0-1.174.7-1.174,1.614v2.663h-.452Z" transform="translate(-135.688 -115.021)" fill="#fff"/>
          <path id="Path_351" data-name="Path 351" d="M253.369,197.589a1.849,1.849,0,0,0,1.829,1.941,1.758,1.758,0,0,0,1.6-1.05l.383.226a2.781,2.781,0,1,1,.124-1.117Zm3.465-.429a1.729,1.729,0,0,0-1.7-1.6,1.76,1.76,0,0,0-1.727,1.6Z" transform="translate(-149.072 -115.021)" fill="#fff"/>
          <path id="Path_352" data-name="Path 352" d="M275.709,186.552h.451v8.227h-.451v-.824a2.1,2.1,0,0,1-1.783.948,2.253,2.253,0,0,1-2.257-2.449,2.18,2.18,0,0,1,2.257-2.381,2.084,2.084,0,0,1,1.783.9Zm-3.566,5.891a1.808,1.808,0,1,0,3.589,0,1.791,1.791,0,0,0-1.806-1.941,1.763,1.763,0,0,0-1.783,1.941" transform="translate(-160.138 -109.965)" fill="#fff"/>
          <path id="Path_353" data-name="Path 353" d="M292.495,200.06l-2.19-4.683h.519l1.93,4.1,1.682-4.1h.519l-3.024,7.2h-.519Z" transform="translate(-171.123 -115.166)" fill="#fff"/>
          <path id="Path_354" data-name="Path 354" d="M312.6,196.314a2.1,2.1,0,0,0-1.592-.756,1.988,1.988,0,0,0-.022,3.972,2.318,2.318,0,0,0,1.671-.824v.609a2.512,2.512,0,0,1-1.682.643,2.415,2.415,0,0,1,.033-4.83,2.42,2.42,0,0,1,1.592.587Z" transform="translate(-181.915 -115.021)" fill="#fff"/>
          <path id="Path_355" data-name="Path 355" d="M326.159,199.552h3.7v.429h-4.672l3.77-4.176h-3.183v-.429h4.107Z" transform="translate(-191.685 -115.166)" fill="#fff"/>
          <path id="Path_356" data-name="Path 356" d="M344.593,195.23h.452v.722a1.537,1.537,0,0,1,1.411-.824,1.431,1.431,0,0,1,1.276.643,2.222,2.222,0,0,1,.225,1.163v2.9H347.5v-2.9a1.7,1.7,0,0,0-.181-.925.978.978,0,0,0-.9-.452,1.211,1.211,0,0,0-1.129.643,2.505,2.505,0,0,0-.248,1.241v2.392h-.452Z" transform="translate(-203.123 -115.021)" fill="#fff"/>
          <path id="Path_357" data-name="Path 357" d="M362.67,200.06l-2.19-4.683H361l1.93,4.1,1.682-4.1h.519l-3.025,7.2h-.519Z" transform="translate(-212.488 -115.166)" fill="#fff"/>
        </g>
      </g>
      <path id="Union_5" data-name="Union 5" d="M5.862,84.939,26.348,53.321l9.438.069c-4.218,3.526-9.188,6.215-13.2,9.932a4.251,4.251,0,0,0,6.171,5.6c2.593-2.644,14.4-9.732,20.356-14.383v30.4H5.862ZM0,39.327c3.39-1.581,8.7-4.412,10.319-5.161,3.165-1.466,6.431-2.759,9.646-4.114.464-3.232,1.111-6.146,3.759-8.3-.054-.107-.239-.084-.355-.071-1.9.214-12.662,5.368-15.179,6.525-1.117.514-4.854,2.218-8.191,3.84V0H49.116V15.429l-14.325,5.9a9.975,9.975,0,0,1,3.688,5.107l10.637-4.26V45.363L33.8,45.019C34.637,39.36,35.906,33.7,36.209,28a6.837,6.837,0,0,0-7.874-5.6c-8.171,1.1-6.062,19.877-8.724,26.032L0,78.709ZM28.194,3.949c-10.155.879-9.531,16.534.832,16.534a11.089,11.089,0,0,0,1.3-.078c9.79-1.149,8.983-16.5-1.2-16.5Q28.668,3.909,28.194,3.949Z" transform="translate(0 -0.001)" fill="#fff" stroke="rgba(0,0,0,0)" stroke-width="1"/>
    </g>
  </g>
</svg>
