<?xml version="1.0" encoding="utf-8"?>
<!-- Generator: Adobe Illustrator 16.0.0, SVG Export Plug-In . SVG Version: 6.00 Build 0)  -->
<!DOCTYPE svg PUBLIC "-//W3C//DTD SVG 1.1//EN" "http://www.w3.org/Graphics/SVG/1.1/DTD/svg11.dtd">
<svg version="1.1" id="Layer_1" xmlns="http://www.w3.org/2000/svg" xmlns:xlink="http://www.w3.org/1999/xlink" x="0px" y="0px"
	 width="128px" height="128px" viewBox="0 0 128 128" enable-background="new 0 0 128 128" xml:space="preserve">
<g>
	<path fill-rule="evenodd" clip-rule="evenodd" d="M64.341,0c21.92,0.311,40.722,14.965,46.176,36.161
		c2.569,9.986,1.306,19.557-2.736,28.94c-4.807,11.159-11.097,21.456-17.912,31.458c-7.007,10.282-14.538,20.173-22.537,29.705
		c-1.877,2.237-4.598,2.35-6.456,0.12c-13.58-16.292-26.26-33.222-36.245-52.015c-3.288-6.189-6.119-12.591-7.646-19.475
		c-1.617-7.295-0.79-14.497,1.639-21.432C24.646,16.259,36.675,5.533,54.397,1.327C57.634,0.559,61.022,0.426,64.341,0z
		 M64.268,117.62c0.374-0.421,0.661-0.721,0.922-1.042c7.292-9.012,14.233-18.285,20.651-27.941
		c5.57-8.379,10.806-16.949,14.815-26.216c2.959-6.835,4.347-13.782,2.981-21.308c-3.682-20.29-23.211-35.05-43.649-32.459
		c-15.074,1.911-25.929,9.95-32.25,23.763c-3.149,6.882-4.407,14.179-2.586,21.715c1.485,6.145,4.19,11.815,7.178,17.345
		c7.672,14.196,17.023,27.266,26.947,39.943C60.892,113.482,62.56,115.502,64.268,117.62z"/>
	<path fill-rule="evenodd" clip-rule="evenodd" d="M64.285,73.6C50.093,73.58,38.75,62.182,38.792,47.984
		c0.043-14.128,11.411-25.445,25.548-25.432c14.183,0.013,25.543,11.428,25.492,25.615C89.783,62.305,78.417,73.619,64.285,73.6z
		 M64.341,65.726c9.68-0.019,17.356-7.726,17.343-17.408c-0.015-9.678-7.718-17.357-17.401-17.348
		c-9.671,0.01-17.349,7.717-17.34,17.406C46.951,58.05,54.668,65.744,64.341,65.726z"/>
</g>
</svg>
