<?xml version="1.0" encoding="utf-8"?>
<!-- Generator: Adobe Illustrator 16.0.0, SVG Export Plug-In . SVG Version: 6.00 Build 0)  -->
<!DOCTYPE svg PUBLIC "-//W3C//DTD SVG 1.1//EN" "http://www.w3.org/Graphics/SVG/1.1/DTD/svg11.dtd">
<svg version="1.1" id="Layer_1" xmlns="http://www.w3.org/2000/svg" xmlns:xlink="http://www.w3.org/1999/xlink" x="0px" y="0px"
	 width="128px" height="128px" viewBox="0 0 128 128" enable-background="new 0 0 128 128" xml:space="preserve">
<g>
	<path fill-rule="evenodd" clip-rule="evenodd" d="M128,86.751c-0.147,0.38-0.307,0.756-0.439,1.141
		c-1.093,3.17-3.883,5.299-7.232,5.393c-2.54,0.07-5.082,0.048-7.622,0.014c-0.701-0.01-1.006,0.199-1.215,0.895
		c-1.8,5.981-6.829,9.805-12.821,9.807c-5.975,0-11.032-3.83-12.836-9.799c-0.216-0.714-0.515-0.898-1.203-0.898
		c-13.746,0.016-27.493,0.018-41.239-0.005c-0.778-0.001-1.034,0.274-1.253,1.002c-1.782,5.915-6.903,9.733-12.908,9.698
		c-5.923-0.035-10.971-3.896-12.719-9.779c-0.2-0.674-0.47-0.938-1.192-0.924c-1.204,0.023-2.439,0.072-3.609-0.155
		c-3.703-0.721-6.223-3.844-6.384-7.753c-0.034-0.829-0.005-1.66-0.005-2.65C3.313,82.622,1.072,83.113,0,80.751c0-0.5,0-1,0-1.5
		c0.774-1.509,2.025-2.021,3.684-1.958c2.205,0.083,4.416,0,6.623,0.029c1.612,0.022,2.708,0.867,2.937,2.179
		c0.241,1.383-0.398,2.378-1.943,3.062c-0.21,0.093-0.479,0.223-0.562,0.407c-1.097,2.445,0.536,5.015,3.179,5.031
		c0.747,0.004,1.495,0,2.303,0c0.126-0.438,0.234-0.834,0.354-1.225c1.717-5.582,6.936-9.453,12.749-9.455
		c5.791-0.004,10.961,3.758,12.673,9.336c0.324,1.056,0.733,1.379,1.857,1.375c13.456-0.049,26.912-0.04,40.368-0.012
		c0.951,0.002,1.423-0.171,1.727-1.201c1.687-5.701,6.963-9.563,12.803-9.496c5.968,0.066,11.095,3.997,12.75,9.771
		c0.08,0.277,0.178,0.549,0.29,0.893c2.798,0,5.583,0.046,8.366-0.019c1.399-0.032,2.456-1.045,2.474-2.501
		c0.052-4.037-0.029-8.077-0.044-12.115c-0.004-1.037-0.406-1.391-1.51-1.381c-6.373,0.061-12.747,0.033-19.121,0.028
		c-3.818-0.003-5.952-2.14-5.958-5.956c-0.004-3.25-0.012-6.5,0.003-9.749c0.016-3.358,2.188-5.571,5.537-5.599
		c3.62-0.029,7.241-0.006,10.866-0.006c-0.17-2.772-2.43-5.237-5.241-5.305c-5.912-0.14-11.829-0.061-17.745-0.072
		c-0.41,0-0.82,0-1.419,0c0,0.568,0,1.047,0,1.527c0,9.039,0.002,18.08-0.001,27.119c-0.002,5.396-3.32,8.721-8.73,8.725
		c-10.123,0.01-20.246,0.006-30.369-0.003c-0.537,0-1.09-0.029-1.606-0.161c-1.15-0.295-1.897-1.309-1.915-2.48
		c-0.019-1.221,0.753-2.284,1.959-2.572c0.558-0.133,1.154-0.148,1.732-0.148c9.999-0.008,19.997-0.004,29.995-0.006
		c2.797-0.002,3.622-0.837,3.622-3.673c0.001-13.539,0.001-27.079,0-40.618c0-2.846-0.873-3.709-3.749-3.709
		c-21.538,0-43.075,0-64.613,0.001c-2.822,0-3.638,0.819-3.638,3.653c-0.002,9.998,0,19.996-0.001,29.994
		c0,2.441-0.947,3.745-2.703,3.732c-1.752-0.012-2.67-1.304-2.67-3.764c-0.001-9.998-0.003-19.996,0-29.995
		c0.002-5.679,3.243-8.934,8.893-8.934c21.663-0.002,43.326-0.001,64.989,0c5.521,0,8.799,3.259,8.805,8.751
		c0.002,2.366,0,4.732,0,7.248c0.534,0,0.978,0,1.42,0c5.666,0,11.332-0.009,16.998,0.004c4.816,0.01,8.276,2.208,10.284,6.578
		c3.353,7.294,6.673,14.603,9.957,21.928c0.572,1.273,0.9,2.657,1.341,3.99C128,77.251,128,82.001,128,86.751z M90.693,90.657
		c0.001,4.451,3.596,8.061,7.992,8.023c4.407-0.037,8.015-3.678,7.992-8.067c-0.021-4.367-3.57-7.895-7.969-7.922
		C94.254,82.663,90.691,86.204,90.693,90.657z M29.281,82.691c-4.378,0.019-7.929,3.554-7.962,7.929s3.634,8.072,7.995,8.061
		c4.428-0.01,7.985-3.586,7.991-8.031C37.311,86.204,33.75,82.673,29.281,82.691z M119.788,66.626
		c-0.023-0.234-0.005-0.367-0.052-0.471c-1.435-3.182-2.855-6.371-4.35-9.524c-0.151-0.319-0.749-0.595-1.145-0.603
		c-2.871-0.051-5.743-0.027-8.614-0.027c-1.4,0-2.8,0-4.221,0c0,3.627,0,7.096,0,10.625
		C107.562,66.626,113.626,66.626,119.788,66.626z"/>
	<path fill-rule="evenodd" clip-rule="evenodd" d="M54.78,63.249c0.78-1.491,2.016-1.993,3.675-1.961
		c3.906,0.074,7.815,0.029,11.723,0.02c1.091-0.002,2.218,0.156,2.693,1.19c0.346,0.751,0.449,1.779,0.243,2.577
		c-0.282,1.097-1.316,1.567-2.438,1.594c-1.662,0.039-3.325,0.016-4.988,0.018c-2.411,0.001-4.824-0.064-7.232,0.021
		c-1.662,0.061-2.896-0.471-3.676-1.959C54.78,64.249,54.78,63.749,54.78,63.249z"/>
</g>
</svg>
