<svg xmlns="http://www.w3.org/2000/svg" width="203.75" height="39.492" viewBox="0 0 203.75 39.492">
  <g id="Group_1845" data-name="Group 1845" transform="translate(-273.25 -64.614)">
    <g id="Group_19" data-name="Group 19" transform="translate(319.302 64.92)">
      <path id="Path_1" data-name="Path 1" d="M72.149.3,71.37,4.309H65.2V20.84H60.438V4.312H53.572L54.322.3Z" transform="translate(-53.572 -0.242)" fill="#fff"/>
      <path id="Path_2" data-name="Path 2" d="M93.688,7.369a6.161,6.161,0,0,1-.938,3.592,5.412,5.412,0,0,1-2.726,1.973L94.67,20.84H89.448l-3.923-7.211H82.266V20.84H77.621V.3H85.9a15.731,15.731,0,0,1,3.548.343,6,6,0,0,1,2.409,1.1,4.418,4.418,0,0,1,1.384,1.947,8.319,8.319,0,0,1,.447,2.9Zm-4.673-.491a4.436,4.436,0,0,0-.172-1.34,1.732,1.732,0,0,0-.549-.837,2.2,2.2,0,0,0-.995-.419,8.717,8.717,0,0,0-1.544-.115H82.265V9.879h3.49A8.63,8.63,0,0,0,87.3,9.763a2.1,2.1,0,0,0,.995-.429,1.821,1.821,0,0,0,.549-.851,4.552,4.552,0,0,0,.172-1.372Z" transform="translate(-56.996 -0.241)" fill="#fff"/>
      <path id="Path_3" data-name="Path 3" d="M112.229,15.879h-7.384l-1.616,4.961H98.44L105.853.3h5.6l7.443,20.538H113.9ZM106,12.158h5.077l-2.567-7.644Z" transform="translate(-59.96 -0.242)" fill="#fff"/>
      <path id="Path_4" data-name="Path 4" d="M128.439.3l9.115,13.009V.3h4.5V20.84h-3.923L129.1,7.946V20.84h-4.529V.3Z" transform="translate(-63.68 -0.242)" fill="#fff"/>
      <path id="Path_5" data-name="Path 5" d="M158.136,8.715a10.321,10.321,0,0,1,2.509.722,4.606,4.606,0,0,1,1.616,1.167,4.225,4.225,0,0,1,.865,1.673,8.647,8.647,0,0,1,.257,2.236v.429a7.841,7.841,0,0,1-.4,2.668,4.038,4.038,0,0,1-1.356,1.846,6.292,6.292,0,0,1-2.506,1.087,18.057,18.057,0,0,1-3.837.343H152.3q-.879,0-1.99-.015t-2.524-.044l.721-3.865q2.279.057,3.88.057h2.956a10.006,10.006,0,0,0,1.572-.1,2.594,2.594,0,0,0,.981-.332,1.15,1.15,0,0,0,.49-.621,3.185,3.185,0,0,0,.13-.995,5.027,5.027,0,0,0-.072-.923,1.167,1.167,0,0,0-.316-.62,1.86,1.86,0,0,0-.664-.4,6.04,6.04,0,0,0-1.111-.274l-3.028-.519a12.848,12.848,0,0,1-2.744-.735,4.615,4.615,0,0,1-1.688-1.139,3.747,3.747,0,0,1-.851-1.645,9.479,9.479,0,0,1-.231-2.221V6.036a6.893,6.893,0,0,1,.4-2.452,4.253,4.253,0,0,1,1.327-1.817A6.321,6.321,0,0,1,151.949.624a14.469,14.469,0,0,1,3.62-.389H158.7q.851,0,1.846.015t2.261.041l-.721,3.865q-2.25-.057-3.822-.057h-2.784a8.617,8.617,0,0,0-1.443.1,2.3,2.3,0,0,0-.894.318,1.147,1.147,0,0,0-.447.591,2.83,2.83,0,0,0-.126.929,4.123,4.123,0,0,0,.072.836,1.168,1.168,0,0,0,.288.577,1.667,1.667,0,0,0,.621.389,5.643,5.643,0,0,0,1.067.274Z" transform="translate(-66.984 -0.232)" fill="#fff"/>
      <path id="Path_6" data-name="Path 6" d="M177.191,15.1,173.24,7.456V20.84h-4.472V.3h5.077l5.365,10.471L184.4.3h5.048V20.84h-4.473V7.312L181.028,15.1Z" transform="translate(-69.972 -0.242)" fill="#fff"/>
      <path id="Path_7" data-name="Path 7" d="M210.112,12.388h-8.567v4.443h10.413l-.779,4.01H196.785V.3h15l-.75,4.012h-9.49V8.38h9.318Z" transform="translate(-73.961 -0.242)" fill="#fff"/>
      <path id="Path_8" data-name="Path 8" d="M234.365.3l-.779,4.009h-6.175V20.84h-4.76V4.312H215.79L216.538.3Z" transform="translate(-76.667 -0.242)" fill="#fff"/>
    </g>
    <g id="Group_22" data-name="Group 22" transform="translate(274 65.364)">
      <g id="Group_20" data-name="Group 20" transform="translate(3.243 3.238)">
        <rect id="Rectangle_23" data-name="Rectangle 23" width="9.22" height="9.22" rx="0.995" transform="translate(0 20.749)" fill="#fff"/>
        <path id="Path_9" data-name="Path 9" d="M4.531,17.343v5.064a.858.858,0,0,0,.858.858H16.613a.858.858,0,0,1,.858.858V35.343a.858.858,0,0,0,.858.858h5.065a.858.858,0,0,0,.858-.858v-18a.858.858,0,0,0-.858-.858H5.384A.858.858,0,0,0,4.531,17.343Z" transform="translate(-4.531 -6.229)" fill="#fff"/>
        <path id="Path_10" data-name="Path 10" d="M4.531,5.384v4.8a.858.858,0,0,0,.858.858H27.1a.858.858,0,0,1,.858.858V33.641a.858.858,0,0,0,.858.858H33.65a.858.858,0,0,0,.858-.858V5.384a.858.858,0,0,0-.858-.858H5.384A.858.858,0,0,0,4.531,5.384Z" transform="translate(-4.531 -4.526)" fill="#fff"/>
      </g>
      <rect id="Rectangle_24" data-name="Rectangle 24" width="36.449" height="36.449" rx="1" fill="none" stroke="#fff" stroke-width="1.5"/>
    </g>
    <line id="Line_1" data-name="Line 1" x2="157.509" transform="translate(319.262 89.614)" fill="none" stroke="#fff" stroke-width="1.5"/>
    <g id="Group_21" data-name="Group 21" transform="translate(318.829 95.814)">
      <path id="Path_11" data-name="Path 11" d="M57.076,42.713,54,38.121v4.592h-.974v-6.4h.958l3.1,4.6v-4.6h.958v6.4Z" transform="translate(-53.021 -36.263)" fill="#fff"/>
      <path id="Path_12" data-name="Path 12" d="M63.734,41.268l-.553,1.446H62.165l2.551-6.4h.995l2.527,6.4H67.2l-.554-1.446Zm1.453-3.805L64.1,40.308h2.181Z" transform="translate(-54.323 -36.263)" fill="#fff"/>
      <path id="Path_13" data-name="Path 13" d="M75.151,40.772c-.086.009-.172.009-.265.009H73.514v1.931h-.973v-6.4h2.345a2.264,2.264,0,0,1,1.128,4.262l1.3,2.144H76.2Zm-.265-.961c.892,0,1.4-.421,1.4-1.286,0-.841-.515-1.244-1.4-1.244H73.514v2.534Z" transform="translate(-55.8 -36.26)" fill="#fff"/>
      <path id="Path_14" data-name="Path 14" d="M82.688,41.744h3.559v.97h-4.88v-.778l3.526-4.657H81.474V36.31h4.732v.777Z" transform="translate(-57.057 -36.263)" fill="#fff"/>
      <path id="Path_15" data-name="Path 15" d="M91.678,37.206v1.811h2.9V39.9h-2.9v1.912h3.328v.9h-.545a1.986,1.986,0,0,0-.416.966.257.257,0,0,0,.248.292.57.57,0,0,0,.413-.292l.272.357a.955.955,0,0,1-.792.521.642.642,0,0,1-.644-.714,2.129,2.129,0,0,1,.429-1.125H90.7v-6.4h4.2v.9Z" transform="translate(-58.385 -36.263)" fill="#fff"/>
      <path id="Path_16" data-name="Path 16" d="M101.871,36.311a3.2,3.2,0,0,1-.026,6.4H99.5v-6.4Zm-1.4,5.433h1.42a2.052,2.052,0,0,0,1.983-2.223,2.084,2.084,0,0,0-2.023-2.241h-1.379Z" transform="translate(-59.638 -36.263)" fill="#fff"/>
      <path id="Path_17" data-name="Path 17" d="M110.148,41.744h3.559v.97h-4.88v-.778l3.526-4.657h-3.419V36.31h4.732v.777Z" transform="translate(-60.966 -36.263)" fill="#fff"/>
      <path id="Path_18" data-name="Path 18" d="M118.163,42.713v-6.4h.975v6.4Z" transform="translate(-62.295 -36.263)" fill="#fff"/>
      <path id="Path_19" data-name="Path 19" d="M124.159,41.268l-.553,1.446H122.59l2.551-6.4h1l2.527,6.4h-1.04l-.553-1.446Zm1.453-3.805-1.09,2.845h2.18Z" transform="translate(-62.925 -36.263)" fill="#fff"/>
      <path id="Path_20" data-name="Path 20" d="M140.149,36.308a2.037,2.037,0,0,1,2.287,2.186,2.085,2.085,0,0,1-2.287,2.286h-1.33v1.931h-.974v-6.4Zm-1.33,3.507h1.286c.891,0,1.4-.421,1.4-1.286,0-.841-.5-1.244-1.4-1.244h-1.286Z" transform="translate(-65.097 -36.26)" fill="#fff"/>
      <path id="Path_21" data-name="Path 21" d="M149.331,40.772c-.086.009-.172.009-.265.009h-1.372v1.931h-.974v-6.4h2.345a2.264,2.264,0,0,1,1.128,4.262l1.3,2.144h-1.1Zm-.265-.961c.892,0,1.4-.421,1.4-1.286,0-.841-.515-1.244-1.4-1.244h-1.372v2.534Z" transform="translate(-66.361 -36.26)" fill="#fff"/>
      <path id="Path_22" data-name="Path 22" d="M156.868,41.744h3.559v.97h-4.88v-.778l3.526-4.657h-3.419V36.31h4.732v.777Z" transform="translate(-67.617 -36.263)" fill="#fff"/>
      <path id="Path_23" data-name="Path 23" d="M165.857,37.279v1.73h2.824v.969h-2.824v1.766h3.254v.97h-4.228v-6.4h4.131v.969Z" transform="translate(-68.946 -36.263)" fill="#fff"/>
      <path id="Path_24" data-name="Path 24" d="M178.8,42.713l-.009-4.784-1.824,4.118h-.636l-1.825-4.117v4.784h-.916v-6.4h1.156l1.908,4.253,1.9-4.253H179.7v6.4Z" transform="translate(-70.187 -36.263)" fill="#fff"/>
      <path id="Path_25" data-name="Path 25" d="M187.138,42.713h-.967V40.619l-2.155-4.308H185l1.652,3.119,1.618-3.119h.991l-2.123,4.271Z" transform="translate(-71.67 -36.263)" fill="#fff"/>
      <path id="Path_26" data-name="Path 26" d="M197.251,36.915l-.4.951a3.221,3.221,0,0,0-1.693-.594c-.569,0-.943.238-.943.668,0,1.4,3.122.649,3.113,2.954,0,1.144-.909,1.848-2.18,1.848a3.374,3.374,0,0,1-2.362-1.016l.421-.933a2.906,2.906,0,0,0,1.957.933c.677,0,1.081-.283,1.081-.777,0-1.427-3.121-.631-3.121-2.909,0-1.1.85-1.784,2.105-1.784a3.509,3.509,0,0,1,2.026.66Z" transform="translate(-72.918 -36.255)" fill="#fff"/>
      <path id="Path_27" data-name="Path 27" d="M205.3,42.713h-3.476V39.348l-.686.22-.165-.7.851-.274V36.311h.966v1.963l1.322-.429.165.7-1.486.484v2.7h2.51Z" transform="translate(-74.085 -36.263)" fill="#fff"/>
      <path id="Path_28" data-name="Path 28" d="M215.072,39.507a3.068,3.068,0,1,1-3.063-3.229,3.116,3.116,0,0,1,3.063,3.229Zm-5.136,0a2.076,2.076,0,1,0,.979-1.946,2.078,2.078,0,0,0-.979,1.946Z" transform="translate(-75.219 -36.258)" fill="#fff"/>
      <path id="Path_29" data-name="Path 29" d="M224.424,42.713l-1.372-4.994-1.387,4.994h-1.008l-1.915-6.4h1.049l1.4,5.2,1.4-5.2.958-.009,1.4,5.2,1.4-5.2h1.008l-1.932,6.4Z" transform="translate(-76.614 -36.263)" fill="#fff"/>
      <path id="Path_30" data-name="Path 30" d="M232.939,37.279v1.73h2.83v.969h-2.83v1.766H236.2v.97H231.97v-6.4H236.1v.969Z" transform="translate(-78.497 -36.263)" fill="#fff"/>
    </g>
  </g>
</svg>
