<svg xmlns="http://www.w3.org/2000/svg" width="23.449" height="27.703" viewBox="0 0 23.449 27.703">
  <g id="shopping-bag" transform="translate(-59.648 -215.5)">
    <g id="Group_1762" data-name="Group 1762" transform="translate(59.648 215.5)">
      <g id="ngicon" transform="translate(0)">
        <path id="Path_35" data-name="Path 35" d="M419.966,282.257h-1.8a2.365,2.365,0,0,0-2.359,2.2l-1.158,16.216a2.364,2.364,0,0,0,2.359,2.533h18.719a2.364,2.364,0,0,0,2.359-2.533l-1.158-16.216a2.365,2.365,0,0,0-2.359-2.2h-1.782v-.338a6.419,6.419,0,0,0-6.419-6.419,6.309,6.309,0,0,0-6.419,6.419c0,.112.009.225.013.338Zm12.825,2.027v5.068a1.014,1.014,0,1,1-2.027,0v-5.068h-8.784v5.068a1.014,1.014,0,1,1-2.027,0s.088-2.368.059-5.068h-1.841a.337.337,0,0,0-.336.314l-1.159,16.216a.338.338,0,0,0,.337.362h18.719a.338.338,0,0,0,.337-.362L434.911,284.6a.337.337,0,0,0-.336-.314Zm-2.027-2.027v-.338a4.392,4.392,0,0,0-8.784,0v.338Z" transform="translate(-414.648 -275.5)" fill-rule="evenodd"/>
      </g>
    </g>
  </g>
</svg>
