<svg xmlns="http://www.w3.org/2000/svg" width="15.964" height="18.86" viewBox="0 0 15.964 18.86">
  <path
    d="M418.269,280.1h-1.222a1.61,1.61,0,0,0-1.606,1.5l-.788,11.04a1.61,1.61,0,0,0,1.606,1.725H429a1.61,1.61,0,0,0,1.606-1.725l-.788-11.04a1.61,1.61,0,0,0-1.606-1.5H427v-.23a4.37,4.37,0,0,0-4.37-4.37,4.3,4.3,0,0,0-4.37,4.37c0,.076.006.153.009.23ZM427,281.48v3.45a.69.69,0,1,1-1.38,0v-3.45h-5.98v3.45a.69.69,0,1,1-1.38,0s.06-1.612.04-3.45h-1.254a.23.23,0,0,0-.229.213l-.789,11.04a.23.23,0,0,0,.23.247H429a.23.23,0,0,0,.229-.247l-.789-11.04a.23.23,0,0,0-.229-.213Zm-1.38-1.38v-.23a2.99,2.99,0,1,0-5.98,0v.23Z"
    transform="translate(-414.648 -275.5)" fill="#fff" fill-rule="evenodd" />
</svg>