<svg xmlns="http://www.w3.org/2000/svg" width="21.435" height="19.648" viewBox="0 0 21.435 19.648">
  <path d="M25.435,21.969V18.4a.893.893,0,1,0-1.786,0v3.572a.893.893,0,0,1-.893.893H6.679a.893.893,0,0,1-.893-.893V18.4A.893.893,0,1,0,4,18.4v3.572a2.679,2.679,0,0,0,2.679,2.679H22.755a2.679,2.679,0,0,0,2.679-2.679Zm-5.7-4.662-4.466,3.572a.893.893,0,0,1-1.107,0L9.7,17.307a.893.893,0,0,1,1.107-1.393l3.019,2.411V5.893a.893.893,0,1,1,1.786,0V18.325l3.019-2.411a.893.893,0,1,1,1.107,1.393Z" transform="translate(-4 -5)" fill="#003793"/>
</svg>
