<svg xmlns="http://www.w3.org/2000/svg" width="23" height="23" viewBox="0 0 23 23">
  <path id="Subtraction_8" data-name="Subtraction 8" d="M11.5,23A11.5,11.5,0,0,1,3.368,3.368,11.5,11.5,0,1,1,19.632,19.632,11.425,11.425,0,0,1,11.5,23ZM4.921,8.19h0l-.009,0L4.9,8.2v6.6a1.321,1.321,0,0,0,1.319,1.319H16.778A1.321,1.321,0,0,0,18.1,14.8V8.184l0,0L12.084,12.55a.993.993,0,0,1-1.168,0L4.921,8.19Zm1.3-1.307a1.327,1.327,0,0,0-.63.166l5.324,3.872a.993.993,0,0,0,1.168,0l5.324-3.872a1.323,1.323,0,0,0-.63-.166Z" fill="#003793"/>
</svg>
