<svg xmlns="http://www.w3.org/2000/svg" width="23" height="23" viewBox="0 0 23 23">
  <path id="Subtraction_2" data-name="Subtraction 2" d="M11.5,23A11.5,11.5,0,0,1,3.368,3.368,11.5,11.5,0,1,1,19.632,19.632,11.425,11.425,0,0,1,11.5,23ZM7.781,6A1.778,1.778,0,0,0,6,7.871a9.707,9.707,0,0,0,2.959,6.169A9.71,9.71,0,0,0,15.129,17l.1,0A1.779,1.779,0,0,0,17,15.218V14.066c0-.245-.19-.436-.509-.51l-2.177-.5a.818.818,0,0,0-.769.225l-.517.527a1.1,1.1,0,0,1-1.394.142,9.591,9.591,0,0,1-2.584-2.584,1.1,1.1,0,0,1,.143-1.394l.527-.517a.815.815,0,0,0,.225-.769l-.5-2.176C9.369,6.191,9.179,6,8.933,6Z" fill="#fff"/>
</svg>
