<svg version="1.1" id="Layer_1" xmlns="http://www.w3.org/2000/svg" xmlns:xlink="http://www.w3.org/1999/xlink" x="0px" y="0px"
	 width="406px" height="406px" viewBox="0 0 406 406" enable-background="new 0 0 406 406" xml:space="preserve">
<g>
	<path fill-rule="evenodd" clip-rule="evenodd" d="M203.225,317.797c-47.744-0.022-90.394-15.698-129.463-42.258
		c-27.681-18.818-51.182-42.011-71.307-68.688c-1.448-1.92-3.109-3.447-0.873-6.397c34.707-45.793,77.392-81.246,132.227-100.174
		c59.632-20.584,117.399-14.377,172.839,14.956c39.089,20.682,71.106,49.637,97.549,84.937c1.499,2.002,1.896,3.386,0.227,5.581
		c-38.792,51.026-86.988,88.683-149.813,105.573C237.792,315.849,220.61,317.664,203.225,317.797z M202.613,277.24
		c41.72-0.009,74.569-32.826,74.53-74.458c-0.038-40.667-33.14-73.801-73.725-73.796c-41.468,0.004-74.455,32.759-74.521,73.993
		C128.833,244.03,161.806,277.248,202.613,277.24z M30.947,202.799c20.086,30.147,83.23,73.979,112.715,78.038
		c-25.062-20.324-38.234-46.191-38.267-77.836c-0.031-31.463,13.33-57.116,37.238-77.553
		C97.456,140.144,60.973,166.874,30.947,202.799z M375.282,203.326c-27.208-34.91-84.29-74.37-112.598-77.732
		c24.719,20.291,37.94,45.979,37.964,77.463c0.022,31.636-13.279,57.412-37.475,77.816
		C308.363,266.314,344.849,239.432,375.282,203.326z"/>
	<path fill-rule="evenodd" clip-rule="evenodd" d="M165.349,188.683c10.241,6.959,18.748,7.604,26.543,2.156
		c8.255-5.768,9.998-13.338,6.346-27.574c13.734-4.056,32.333,5.526,40.78,21.011c8.566,15.703,4.778,36.93-8.709,48.807
		c-15.04,13.244-35.588,14.131-51.871,2.24C164.196,224.921,158.391,204.625,165.349,188.683z"/>
</g>
</svg>
