<svg xmlns="http://www.w3.org/2000/svg" width="23" height="23" viewBox="0 0 23 23">
  <path id="tel" d="M899.5,23a11.5,11.5,0,0,1-8.131-19.632,11.5,11.5,0,0,1,16.263,16.264A11.425,11.425,0,0,1,899.5,23ZM895.781,6A1.779,1.779,0,0,0,894,7.871a9.708,9.708,0,0,0,2.959,6.169A9.714,9.714,0,0,0,903.129,17l.1,0A1.779,1.779,0,0,0,905,15.219V14.066c0-.245-.191-.436-.51-.509l-2.176-.5a.818.818,0,0,0-.769.225l-.518.527a1.1,1.1,0,0,1-1.394.143,9.624,9.624,0,0,1-2.584-2.584,1.1,1.1,0,0,1,.143-1.4l.527-.517a.823.823,0,0,0,.224-.769l-.5-2.176c-.075-.319-.265-.509-.509-.509Z" transform="translate(-888)" fill="#fff"/>
</svg>
