<svg xmlns="http://www.w3.org/2000/svg" width="27.435" height="27.435" viewBox="0 0 27.435 27.435">
  <path id="user_1_" data-name="user (1)" d="M25.259,17.416a12.851,12.851,0,0,0-3.278-2.052,1.072,1.072,0,0,0-.87,1.959,10.718,10.718,0,0,1,2.733,1.7,4.273,4.273,0,0,1,1.448,3.212v1.983a1.073,1.073,0,0,1-1.072,1.072H3.215a1.073,1.073,0,0,1-1.072-1.072V22.238a4.273,4.273,0,0,1,1.448-3.212c1.083-.952,4.238-3.165,10.127-3.165a7.94,7.94,0,1,0-4.831-1.646,14.9,14.9,0,0,0-6.711,3.2A6.417,6.417,0,0,0,0,22.238v1.983a3.219,3.219,0,0,0,3.215,3.215H24.221a3.219,3.219,0,0,0,3.215-3.215V22.238a6.417,6.417,0,0,0-2.176-4.822ZM7.931,7.931a5.787,5.787,0,1,1,5.787,5.787A5.794,5.794,0,0,1,7.931,7.931Zm0,0" transform="translate(0 0)"/>
</svg>
